<?xml version="1.0" encoding="UTF-8"?>
<svg width="500px" height="500px" viewBox="0 0 500 500" version="1.1" xmlns="http://www.w3.org/2000/svg" xmlns:xlink="http://www.w3.org/1999/xlink">
    <!-- Generator: Sketch 46.2 (44496) - http://www.bohemiancoding.com/sketch -->
    <title>logo</title>
    <desc>Created with Sketch.</desc>
    <defs></defs>
    <g id="Mock-up" stroke="none" stroke-width="1" fill="none" fill-rule="evenodd">
        <g id="logo" fill="#A79CB4">
            <g id="Page-1" transform="translate(84.000000, 21.000000)">
                <path d="M174.5,228 C204.598379,228 229,203.599516 229,173.502539 C229,143.400484 204.598379,119 174.5,119 C144.396544,119 120,143.400484 120,173.502539 C120,203.599516 144.396544,228 174.5,228" id="Fill-1"></path>
                <path d="M296,58 C312.01599,58 325,45.0159902 325,29 C325,12.9840098 312.01599,0 296,0 C279.98401,0 267,12.9840098 267,29 C267,45.0159902 279.98401,58 296,58" id="Fill-3"></path>
                <path d="M58,110 C58,93.9840098 45.0159902,81 29,81 C12.9840098,81 0,93.9840098 0,110 C0,126.01599 12.9840098,139 29,139 C45.0159902,139 58,126.01599 58,110" id="Fill-5"></path>
                <g id="Group-9" transform="translate(16.000000, 15.000000)">
                    <path d="M286.483429,286.202413 C270.701841,301.984 242.739937,304.335746 207.75327,292.820825 C196.71073,289.184 185.43454,284.30781 174.112635,278.334476 C193.906921,265.371937 213.376127,249.488762 231.575492,231.289397 C249.967873,212.902095 265.800254,193.42273 278.63581,173.862095 C284.598984,185.168762 289.470095,196.439873 293.101841,207.467175 C304.616762,242.458921 302.265016,270.420825 286.483429,286.202413 M109.086603,292.820825 C74.0948571,304.335746 46.1329524,301.984 30.3513651,286.202413 C14.5697778,270.420825 12.2180317,242.458921 23.7329524,207.467175 C27.3697778,196.424635 32.2459683,185.143365 38.224381,173.82146 C51.2275556,193.702095 67.1107302,213.140825 85.2593016,231.289397 C103.458667,249.488762 122.927873,265.371937 142.717079,278.334476 C131.400254,284.30781 120.124063,289.184 109.086603,292.820825 M96.5812063,96.2951111 C116.258667,76.6176508 137.327873,59.8811429 158.381841,46.8779683 C179.608508,59.952254 200.662476,76.704 220.253587,96.2951111 C239.819302,115.860825 256.55581,136.884317 269.614857,158.080508 C256.642159,179.114159 239.946286,200.284952 220.253587,219.972571 C200.672635,239.553524 179.633905,256.30019 158.417397,269.364317 C137.200889,256.30019 116.162159,239.553524 96.5812063,219.972571 C77.0662857,200.46273 60.3450159,179.449397 47.2148571,158.090667 C60.2739048,136.889397 77.0104127,115.865905 96.5812063,96.2951111 M308.304381,202.464 C303.519619,187.921778 296.753905,173.029079 288.266286,158.177016 C311.773587,117.171302 321.541206,76.9478095 313.490413,46.7052698 C312.357714,42.4335238 307.974222,39.8887619 303.697397,41.0265397 C299.425651,42.1643175 296.885968,46.5478095 298.023746,50.8195556 C304.464381,75.0125714 296.865651,107.972571 278.600254,142.410667 C265.642794,122.62654 249.764698,103.167492 231.575492,84.9782857 C213.360889,66.7636825 193.871365,50.8652698 174.061841,37.8976508 C195.999619,26.2862222 217.531048,18.9668571 237.040889,16.8944762 C241.43454,16.4271746 244.619302,12.4855873 244.152,8.09193651 C243.684698,3.69320635 239.758349,0.508444444 235.34946,0.980825397 C211.481524,3.51542857 185.007873,13.1001905 158.427556,28.3128889 C143.555175,19.8151111 128.647238,13.0392381 114.089778,8.24431746 C73.063746,-5.25663492 39.3062857,-1.52330159 19.0345397,18.7484444 C11.5627937,26.2201905 6.2751746,35.6474921 3.32914286,46.7662222 C2.19644444,51.0430476 4.74120635,55.4214603 9.01295238,56.5541587 C13.2846984,57.6868571 17.6681905,55.1420952 18.8008889,50.8703492 C21.0154921,42.5147937 24.9012063,35.5154286 30.3513651,30.0703492 C46.1380317,14.2836825 74.0999365,11.9370159 109.086603,23.4519365 C120.129143,27.0836825 131.410413,31.9649524 142.732317,37.9433651 C123.019302,50.8551111 103.519619,66.7179683 85.2593016,84.9782857 C67.0700952,103.167492 51.192,122.62654 38.2345397,142.405587 C36.2586667,138.662095 34.3945397,134.913524 32.6523175,131.175111 C30.7932698,127.162413 26.0339048,125.42527 22.0262857,127.289397 C18.0135873,129.153524 16.2764444,133.912889 18.1405714,137.920508 C21.2694603,144.650667 24.784381,151.385905 28.6142222,158.095746 C20.1062857,172.973206 13.3253333,187.896381 8.52533333,202.464 C-4.97053968,243.484952 -1.24228571,277.242413 19.0345397,297.524317 C31.3012063,309.790984 48.5050159,316.003048 69.2745397,315.997968 C82.8212063,315.997968 97.8916825,313.356698 114.089778,308.023365 C128.647238,303.233524 143.550095,296.457651 158.417397,287.959873 C173.284698,296.457651 188.187556,303.233524 202.745016,308.023365 C218.94819,313.356698 234.008508,315.997968 247.560254,315.997968 C268.324698,315.997968 285.533587,309.790984 297.805333,297.524317 C318.077079,277.242413 321.810413,243.484952 308.304381,202.464" id="Fill-7"></path>
                </g>
            </g>
            <path d="M76.2042782,451.8 C78.5376232,451.8 80.6042692,451.600002 82.4042782,451.2 C84.2042872,450.799998 85.9042702,450.26667 87.5042782,449.6 L87.5042782,438.55 L80.3042782,438.55 C79.2376062,438.55 78.4042812,438.26667 77.8042782,437.7 C77.2042752,437.13333 76.9042782,436.416671 76.9042782,435.55 L76.9042782,426.25 L102.804278,426.25 L102.804278,457 C100.937602,458.366673 98.9959549,459.541662 96.9792782,460.525 C94.9626014,461.508338 92.8126229,462.316664 90.5292782,462.95 C88.2459334,463.583336 85.8126244,464.049999 83.2292782,464.35 C80.6459319,464.650002 77.8709597,464.8 74.9042782,464.8 C69.5709182,464.8 64.6376342,463.858343 60.1042782,461.975 C55.5709222,460.091657 51.6459614,457.491683 48.3292782,454.175 C45.0125949,450.858317 42.4126209,446.925023 40.5292782,442.375 C38.6459354,437.824977 37.7042782,432.88336 37.7042782,427.55 C37.7042782,422.11664 38.6042692,417.125023 40.4042782,412.575 C42.2042872,408.024977 44.7792614,404.100017 48.1292782,400.8 C51.4792949,397.499983 55.5292544,394.933342 60.2792782,393.1 C65.0293019,391.266658 70.3375822,390.35 76.2042782,390.35 C79.2376267,390.35 82.0875982,390.599997 84.7542782,391.1 C87.4209582,391.600003 89.8792669,392.283329 92.1292782,393.15 C94.3792894,394.016671 96.4376022,395.049994 98.3042782,396.25 C100.170954,397.450006 101.837604,398.749993 103.304278,400.15 L98.4042782,407.6 C97.9376092,408.300004 97.3792814,408.849998 96.7292782,409.25 C96.0792749,409.650002 95.3709487,409.85 94.6042782,409.85 C93.6042732,409.85 92.5709502,409.51667 91.5042782,408.85 C90.1709382,408.049996 88.9126174,407.358336 87.7292782,406.775 C86.5459389,406.191664 85.3376177,405.716668 84.1042782,405.35 C82.8709387,404.983331 81.5709517,404.716667 80.2042782,404.55 C78.8376047,404.383332 77.3042867,404.3 75.6042782,404.3 C72.4375957,404.3 69.5876242,404.858328 67.0542782,405.975 C64.5209322,407.091672 62.3626204,408.666656 60.5792782,410.7 C58.7959359,412.733343 57.4209497,415.174986 56.4542782,418.025 C55.4876067,420.875014 55.0042782,424.049982 55.0042782,427.55 C55.0042782,431.416686 55.5376062,434.849985 56.6042782,437.85 C57.6709502,440.850015 59.1459354,443.383323 61.0292782,445.45 C62.9126209,447.516677 65.1459319,449.091661 67.7292782,450.175 C70.3126244,451.258339 73.1375962,451.8 76.2042782,451.8 Z M164.004278,391.15 L164.004278,404.15 L134.104278,404.15 L134.104278,421.15 L157.004278,421.15 L157.004278,433.65 L134.104278,433.65 L134.104278,451 L164.004278,451 L164.004278,464 L117.104278,464 L117.104278,391.15 L164.004278,391.15 Z M186.504278,391.15 C187.237615,391.15 187.854276,391.183333 188.354278,391.25 C188.854281,391.316667 189.304276,391.441666 189.704278,391.625 C190.10428,391.808334 190.48761,392.066665 190.854278,392.4 C191.220947,392.733335 191.637609,393.183331 192.104278,393.75 L226.704278,437.5 C226.570944,436.099993 226.470945,434.741673 226.404278,433.425 C226.337611,432.108327 226.304278,430.866672 226.304278,429.7 L226.304278,391.15 L241.204278,391.15 L241.204278,464 L232.404278,464 C231.104272,464 230.004283,463.800002 229.104278,463.4 C228.204274,462.999998 227.337616,462.266672 226.504278,461.2 L192.154278,417.8 C192.254279,419.066673 192.337611,420.308327 192.404278,421.525 C192.470945,422.741673 192.504278,423.883328 192.504278,424.95 L192.504278,464 L177.604278,464 L177.604278,391.15 L186.504278,391.15 Z M304.104278,391.15 L304.104278,404.15 L274.204278,404.15 L274.204278,421.15 L297.104278,421.15 L297.104278,433.65 L274.204278,433.65 L274.204278,451 L304.104278,451 L304.104278,464 L257.204278,464 L257.204278,391.15 L304.104278,391.15 Z M358.304278,405.95 C357.804276,406.750004 357.279281,407.349998 356.729278,407.75 C356.179275,408.150002 355.470949,408.35 354.604278,408.35 C353.837608,408.35 353.012616,408.108336 352.129278,407.625 C351.24594,407.141664 350.24595,406.600003 349.129278,406 C348.012606,405.399997 346.737619,404.858336 345.304278,404.375 C343.870938,403.891664 342.237621,403.65 340.404278,403.65 C337.237596,403.65 334.879286,404.324993 333.329278,405.675 C331.77927,407.025007 331.004278,408.849988 331.004278,411.15 C331.004278,412.616674 331.47094,413.833328 332.404278,414.8 C333.337616,415.766672 334.562604,416.599996 336.079278,417.3 C337.595952,418.000003 339.329268,418.641664 341.279278,419.225 C343.229288,419.808336 345.220935,420.45833 347.254278,421.175 C349.287622,421.89167 351.279268,422.733328 353.229278,423.7 C355.179288,424.666672 356.912604,425.899992 358.429278,427.4 C359.945952,428.900008 361.17094,430.724989 362.104278,432.875 C363.037616,435.025011 363.504278,437.616651 363.504278,440.65 C363.504278,444.016683 362.920951,447.166652 361.754278,450.1 C360.587606,453.033348 358.895956,455.591656 356.679278,457.775 C354.4626,459.958344 351.729294,461.674994 348.479278,462.925 C345.229262,464.175006 341.537632,464.8 337.404278,464.8 C335.1376,464.8 332.82929,464.566669 330.479278,464.1 C328.129266,463.633331 325.854289,462.975004 323.654278,462.125 C321.454267,461.274996 319.387621,460.266673 317.454278,459.1 C315.520935,457.933328 313.837619,456.633341 312.404278,455.2 L317.404278,447.3 C317.770947,446.699997 318.287608,446.216668 318.954278,445.85 C319.620948,445.483331 320.337608,445.3 321.104278,445.3 C322.104283,445.3 323.112606,445.616664 324.129278,446.25 C325.14595,446.883336 326.295938,447.583329 327.579278,448.35 C328.862618,449.11667 330.337603,449.816664 332.004278,450.45 C333.670953,451.083336 335.6376,451.4 337.904278,451.4 C340.97096,451.4 343.35427,450.725007 345.054278,449.375 C346.754287,448.024993 347.604278,445.883348 347.604278,442.95 C347.604278,441.249991 347.137616,439.866672 346.204278,438.8 C345.27094,437.733328 344.045952,436.850004 342.529278,436.15 C341.012604,435.449996 339.287621,434.833336 337.354278,434.3 C335.420935,433.766664 333.437622,433.175003 331.404278,432.525 C329.370935,431.874997 327.387621,431.075005 325.454278,430.125 C323.520935,429.174995 321.795952,427.925008 320.279278,426.375 C318.762604,424.824992 317.537616,422.891678 316.604278,420.575 C315.67094,418.258322 315.204278,415.400017 315.204278,412 C315.204278,409.266653 315.754273,406.600013 316.854278,404 C317.954284,401.399987 319.570934,399.083344 321.704278,397.05 C323.837622,395.016657 326.454263,393.391673 329.554278,392.175 C332.654294,390.958327 336.204258,390.35 340.204278,390.35 C342.437623,390.35 344.612601,390.524998 346.729278,390.875 C348.845955,391.225002 350.854269,391.741663 352.754278,392.425 C354.654288,393.108337 356.42927,393.924995 358.079278,394.875 C359.729286,395.825005 361.204272,396.899994 362.504278,398.1 L358.304278,405.95 Z M394.404278,464 L377.404278,464 L377.404278,391.15 L394.404278,391.15 L394.404278,464 Z M452.504278,405.95 C452.004276,406.750004 451.479281,407.349998 450.929278,407.75 C450.379275,408.150002 449.670949,408.35 448.804278,408.35 C448.037608,408.35 447.212616,408.108336 446.329278,407.625 C445.44594,407.141664 444.44595,406.600003 443.329278,406 C442.212606,405.399997 440.937619,404.858336 439.504278,404.375 C438.070938,403.891664 436.437621,403.65 434.604278,403.65 C431.437596,403.65 429.079286,404.324993 427.529278,405.675 C425.97927,407.025007 425.204278,408.849988 425.204278,411.15 C425.204278,412.616674 425.67094,413.833328 426.604278,414.8 C427.537616,415.766672 428.762604,416.599996 430.279278,417.3 C431.795952,418.000003 433.529268,418.641664 435.479278,419.225 C437.429288,419.808336 439.420935,420.45833 441.454278,421.175 C443.487622,421.89167 445.479268,422.733328 447.429278,423.7 C449.379288,424.666672 451.112604,425.899992 452.629278,427.4 C454.145952,428.900008 455.37094,430.724989 456.304278,432.875 C457.237616,435.025011 457.704278,437.616651 457.704278,440.65 C457.704278,444.016683 457.120951,447.166652 455.954278,450.1 C454.787606,453.033348 453.095956,455.591656 450.879278,457.775 C448.6626,459.958344 445.929294,461.674994 442.679278,462.925 C439.429262,464.175006 435.737632,464.8 431.604278,464.8 C429.3376,464.8 427.02929,464.566669 424.679278,464.1 C422.329266,463.633331 420.054289,462.975004 417.854278,462.125 C415.654267,461.274996 413.587621,460.266673 411.654278,459.1 C409.720935,457.933328 408.037619,456.633341 406.604278,455.2 L411.604278,447.3 C411.970947,446.699997 412.487608,446.216668 413.154278,445.85 C413.820948,445.483331 414.537608,445.3 415.304278,445.3 C416.304283,445.3 417.312606,445.616664 418.329278,446.25 C419.34595,446.883336 420.495938,447.583329 421.779278,448.35 C423.062618,449.11667 424.537603,449.816664 426.204278,450.45 C427.870953,451.083336 429.8376,451.4 432.104278,451.4 C435.17096,451.4 437.55427,450.725007 439.254278,449.375 C440.954287,448.024993 441.804278,445.883348 441.804278,442.95 C441.804278,441.249991 441.337616,439.866672 440.404278,438.8 C439.47094,437.733328 438.245952,436.850004 436.729278,436.15 C435.212604,435.449996 433.487621,434.833336 431.554278,434.3 C429.620935,433.766664 427.637622,433.175003 425.604278,432.525 C423.570935,431.874997 421.587621,431.075005 419.654278,430.125 C417.720935,429.174995 415.995952,427.925008 414.479278,426.375 C412.962604,424.824992 411.737616,422.891678 410.804278,420.575 C409.87094,418.258322 409.404278,415.400017 409.404278,412 C409.404278,409.266653 409.954273,406.600013 411.054278,404 C412.154284,401.399987 413.770934,399.083344 415.904278,397.05 C418.037622,395.016657 420.654263,393.391673 423.754278,392.175 C426.854294,390.958327 430.404258,390.35 434.404278,390.35 C436.637623,390.35 438.812601,390.524998 440.929278,390.875 C443.045955,391.225002 445.054269,391.741663 446.954278,392.425 C448.854288,393.108337 450.62927,393.924995 452.279278,394.875 C453.929286,395.825005 455.404272,396.899994 456.704278,398.1 L452.504278,405.95 Z" id="GENESIS"></path>
        </g>
    </g>
</svg>