<?xml version="1.0" encoding="UTF-8"?>
<svg width="200px" height="200px" viewBox="0 0 200 200" version="1.1" xmlns="http://www.w3.org/2000/svg" xmlns:xlink="http://www.w3.org/1999/xlink">
    <!-- Generator: Sketch 46.2 (44496) - http://www.bohemiancoding.com/sketch -->
    <title>logo</title>
    <desc>Created with Sketch.</desc>
    <defs></defs>
    <g id="Mock-up" stroke="none" stroke-width="1" fill="none" fill-rule="evenodd">
        <g id="logo" fill="#A79CB4">
            <g id="Group" transform="translate(5.000000, 0.000000)">
                <g id="Page-1" transform="translate(21.171171, 0.000000)">
                    <path d="M78.6036036,102.702703 C92.161432,102.702703 103.153153,91.7114935 103.153153,78.1542966 C103.153153,64.5948128 92.161432,53.6036036 78.6036036,53.6036036 C65.0434881,53.6036036 54.0540541,64.5948128 54.0540541,78.1542966 C54.0540541,91.7114935 65.0434881,102.702703 78.6036036,102.702703" id="Fill-1"></path>
                    <path d="M133.333333,26.1261261 C140.547743,26.1261261 146.396396,20.277473 146.396396,13.0630631 C146.396396,5.84865308 140.547743,0 133.333333,0 C126.118923,0 120.27027,5.84865308 120.27027,13.0630631 C120.27027,20.277473 126.118923,26.1261261 133.333333,26.1261261" id="Fill-3"></path>
                    <path d="M26.1261261,49.5495495 C26.1261261,42.3351396 20.277473,36.4864865 13.0630631,36.4864865 C5.84865308,36.4864865 0,42.3351396 0,49.5495495 C0,56.7639595 5.84865308,62.6126126 13.0630631,62.6126126 C20.277473,62.6126126 26.1261261,56.7639595 26.1261261,49.5495495" id="Fill-5"></path>
                    <g id="Group-9" transform="translate(7.207207, 6.756757)">
                        <path d="M129.046589,128.920006 C121.937766,136.028829 109.342314,137.088174 93.582554,131.901273 C88.608437,130.263063 83.5290719,128.066581 78.4291148,125.37589 C87.3454597,119.536908 96.1153725,112.382325 104.313285,104.184413 C112.598141,95.9018447 119.729844,87.1273559 125.511626,78.3162591 C128.197741,83.4093522 130.391935,88.4864293 132.027856,93.4536823 C137.214758,109.21573 136.155413,121.811183 129.046589,128.920006 M49.1381095,131.901273 C33.3760618,137.088174 20.7806092,136.028829 13.6717861,128.920006 C6.56296296,121.811183 5.5036179,109.21573 10.6905191,93.4536823 C12.3287287,88.4795653 14.5252109,83.3979122 17.2181896,78.2979551 C23.0754755,87.2531961 30.2300586,96.0093808 38.4050908,104.184413 C46.603003,112.382325 55.3729158,119.536908 64.2869727,125.37589 C59.1893036,128.066581 54.1099385,130.263063 49.1381095,131.901273 M43.5050479,43.3761762 C52.3687688,34.5124553 61.8594023,26.9734878 71.3431717,21.1162019 C80.9047333,27.0055198 90.3885028,34.5513514 99.2133276,43.3761762 C108.026712,52.189561 115.56568,61.6596025 121.448134,71.207436 C115.604576,80.6820535 108.083912,90.218447 99.2133276,99.0867439 C90.3930788,107.906993 80.9161733,115.450536 71.3591878,121.335278 C61.8022022,115.450536 52.3252967,107.906993 43.5050479,99.0867439 C34.7145431,90.2985271 27.1824396,80.8330616 21.2679537,71.212012 C27.1504076,61.6618905 34.6893751,52.191849 43.5050479,43.3761762 M138.875847,91.2 C136.720549,84.6494494 133.67293,77.9410267 129.849678,71.2509081 C140.438553,52.7798656 144.838381,34.6611755 141.211898,21.0384098 C140.701673,19.1141999 138.727127,17.9679108 136.800629,18.4804233 C134.876419,18.9929358 133.732418,20.9674818 134.244931,22.8916917 C137.146118,33.7894466 133.723266,48.6362934 125.49561,64.1489489 C119.658916,55.23718 112.506621,46.4718433 104.313285,38.2785071 C96.1085085,30.0737309 87.3294437,22.9122837 78.4062348,17.0710139 C88.2881167,11.8406406 97.9869584,8.54362934 106.775175,7.61012441 C108.754297,7.3996282 110.188875,5.62413842 109.978378,3.64501645 C109.767882,1.66360646 107.999256,0.229029029 106.01327,0.441813242 C95.2619477,1.58352638 83.3368797,5.9009867 71.3637638,12.7535536 C64.6644931,8.92572573 57.9492063,5.87353067 51.3917918,3.71365651 C32.9115973,-2.36785357 17.7055341,-0.686171886 8.57411697,8.44524525 C5.20846561,11.8108966 2.82665523,16.0574289 1.4996139,21.0658659 C0.989389389,22.9923638 2.13567854,24.9646218 4.05988846,25.4748463 C5.98409838,25.9850708 7.95864436,24.8387816 8.46886887,22.9145717 C9.46643787,19.150808 11.2167596,15.9979408 13.6717861,13.5452023 C20.7828972,6.43409123 33.3783498,5.37703418 49.1381095,10.5639354 C54.1122265,12.199857 59.1938796,14.3986272 64.2938367,17.0916059 C55.4140998,22.9077077 46.630459,30.0531389 38.4050908,38.2785071 C30.2117546,46.4718433 23.0594595,55.23718 17.2227656,64.1466609 C16.3327327,62.4604033 15.4930359,60.7718576 14.7082511,59.0878879 C13.8708423,57.2803661 11.7269841,56.4978693 9.92175032,57.3375661 C8.11422851,58.177263 7.33173173,60.3211211 8.17142857,62.1263549 C9.58083798,65.157958 11.1641356,68.191849 12.8892893,71.2143 C9.05688546,77.9158587 6.0024024,84.6380094 3.84024024,91.2 C-2.23898184,109.677906 -0.55958816,124.88397 8.57411697,134.019963 C14.0996425,139.545488 21.8491062,142.343715 31.2047476,142.341427 C37.3068497,142.341427 44.0953525,141.151666 51.3917918,138.749264 C57.9492063,136.591677 64.6622051,133.539482 71.3591878,129.711655 C78.0561705,133.539482 84.7691692,136.591677 91.3265837,138.749264 C98.625311,141.151666 105.409238,142.341427 111.513628,142.341427 C120.866981,142.341427 128.618733,139.545488 134.146547,134.019963 C143.277964,124.88397 144.959645,109.677906 138.875847,91.2" id="Fill-7"></path>
                    </g>
                </g>
                <path d="M17.6595848,194.054054 C18.7106411,194.054054 19.6415627,193.963965 20.4523776,193.783784 C21.2631924,193.603603 22.0289505,193.363365 22.7496749,193.063063 L22.7496749,188.085586 L19.5064316,188.085586 C19.0259487,188.085586 18.6505771,187.957959 18.3803055,187.702703 C18.1100339,187.447446 17.9749001,187.124627 17.9749001,186.734234 L17.9749001,182.545045 L29.6415668,182.545045 L29.6415668,196.396396 C28.8007217,197.012015 27.9261058,197.541289 27.0176929,197.984234 C26.1092799,198.427179 25.1408211,198.79129 24.1122875,199.076577 C23.0837538,199.361863 21.9876687,199.572071 20.8239992,199.707207 C19.6603297,199.842343 18.4103422,199.90991 17.0739992,199.90991 C14.6715848,199.90991 12.4493848,199.48574 10.4073325,198.637387 C8.36528026,197.789035 6.59727993,196.617875 5.10327846,195.123874 C3.609277,193.629872 2.43811754,191.858118 1.58976495,189.808559 C0.741412359,187.758999 0.317242427,185.533045 0.317242427,183.130631 C0.317242427,180.683171 0.722643778,178.434695 1.53345864,176.385135 C2.34427351,174.335575 3.50417182,172.567575 5.01318837,171.081081 C6.52220493,169.594587 8.34651101,168.438443 10.4861613,167.612613 C12.6258117,166.786783 15.0169289,166.373874 17.6595848,166.373874 C19.025958,166.373874 20.3097289,166.486485 21.5109361,166.711712 C22.7121433,166.936938 23.8194896,167.244743 24.8330082,167.635135 C25.8465268,168.025527 26.7736947,168.490988 27.6145397,169.031532 C28.4553848,169.572075 29.206128,170.157655 29.866792,170.788288 L27.6595848,174.144144 C27.4493735,174.459461 27.1978745,174.707206 26.9050803,174.887387 C26.612286,175.067568 26.2932201,175.157658 25.9478731,175.157658 C25.4974204,175.157658 25.0319595,175.007509 24.5514767,174.707207 C23.9508731,174.346845 23.3840619,174.035287 22.8510262,173.772523 C22.3179905,173.509758 21.7737017,173.295797 21.2181433,173.130631 C20.662585,172.965465 20.0770053,172.845346 19.4613866,172.77027 C18.8457679,172.695195 18.1550841,172.657658 17.3893145,172.657658 C15.9628809,172.657658 14.67911,172.909157 13.5379631,173.412162 C12.3968163,173.915168 11.4246038,174.62462 10.6212965,175.540541 C9.81798916,176.456461 9.19862599,177.5563 8.76318837,178.84009 C8.32775076,180.12388 8.11003522,181.554046 8.11003522,183.130631 C8.11003522,184.872381 8.35027306,186.418912 8.83075594,187.77027 C9.31123882,189.121628 9.97564659,190.262758 10.8239992,191.193694 C11.6723518,192.124629 12.6783477,192.834082 13.8420172,193.322072 C15.0056867,193.810062 16.2781965,194.054054 17.6595848,194.054054 Z M57.2091343,166.734234 L57.2091343,172.59009 L43.7406659,172.59009 L43.7406659,180.247748 L54.0559812,180.247748 L54.0559812,185.878378 L43.7406659,185.878378 L43.7406659,193.693694 L57.2091343,193.693694 L57.2091343,199.54955 L36.0830082,199.54955 L36.0830082,166.734234 L57.2091343,166.734234 Z M67.3442695,166.734234 C67.6746014,166.734234 67.9523764,166.749249 68.1776028,166.779279 C68.4028291,166.809309 68.6055298,166.865615 68.7857109,166.948198 C68.965892,167.030781 69.1385629,167.147146 69.3037289,167.297297 C69.4688949,167.447448 69.6565807,167.650149 69.866792,167.905405 L85.4523776,187.612613 C85.3923172,186.981979 85.3472726,186.370123 85.3172424,185.777027 C85.2872122,185.183931 85.2721974,184.624627 85.2721974,184.099099 L85.2721974,166.734234 L91.9839091,166.734234 L91.9839091,199.54955 L88.0199451,199.54955 C87.4343566,199.54955 86.9388661,199.45946 86.5334586,199.279279 C86.1280512,199.099098 85.7376647,198.768771 85.3622875,198.288288 L69.8893145,178.738739 C69.9343598,179.309312 69.9718969,179.868616 70.0019271,180.416667 C70.0319573,180.964717 70.0469722,181.478977 70.0469722,181.959459 L70.0469722,199.54955 L63.3352604,199.54955 L63.3352604,166.734234 L67.3442695,166.734234 Z M120.317242,166.734234 L120.317242,172.59009 L106.848774,172.59009 L106.848774,180.247748 L117.164089,180.247748 L117.164089,185.878378 L106.848774,185.878378 L106.848774,193.693694 L120.317242,193.693694 L120.317242,199.54955 L99.1911163,199.54955 L99.1911163,166.734234 L120.317242,166.734234 Z M144.731657,173.400901 C144.50643,173.761263 144.269946,174.031531 144.022197,174.211712 C143.774448,174.391893 143.455383,174.481982 143.06499,174.481982 C142.719643,174.481982 142.348025,174.373124 141.950125,174.155405 C141.552225,173.937687 141.101779,173.693695 140.598774,173.423423 C140.095768,173.153152 139.52145,172.90916 138.875801,172.691441 C138.230152,172.473723 137.494424,172.364865 136.668594,172.364865 C135.24216,172.364865 134.179859,172.668916 133.481657,173.277027 C132.783455,173.885138 132.43436,174.707202 132.43436,175.743243 C132.43436,176.403907 132.644568,176.95195 133.06499,177.387387 C133.485413,177.822825 134.037209,178.198197 134.720396,178.513514 C135.403582,178.82883 136.184355,179.117867 137.062738,179.380631 C137.941121,179.643395 138.838259,179.936185 139.754179,180.259009 C140.6701,180.581833 141.567238,180.960959 142.445621,181.396396 C143.324004,181.831834 144.104777,182.387384 144.787963,183.063063 C145.47115,183.738742 146.022946,184.560806 146.443369,185.529279 C146.863791,186.497753 147.073999,187.665158 147.073999,189.031532 C147.073999,190.548056 146.811239,191.96696 146.285711,193.288288 C145.760183,194.609616 144.998178,195.762007 143.999675,196.745495 C143.001171,197.728984 141.769952,198.502249 140.305981,199.065315 C138.84201,199.628381 137.179114,199.90991 135.317242,199.90991 C134.296216,199.90991 133.256437,199.804806 132.197873,199.594595 C131.139309,199.384383 130.114545,199.08784 129.123549,198.704955 C128.132553,198.32207 127.201631,197.86787 126.330756,197.342342 C125.459881,196.816814 124.70163,196.231234 124.055981,195.585586 L126.308233,192.027027 C126.473399,191.756755 126.70613,191.53904 127.006432,191.373874 C127.306733,191.208708 127.629553,191.126126 127.9749,191.126126 C128.425353,191.126126 128.879552,191.268767 129.337513,191.554054 C129.795473,191.839341 130.313486,192.154653 130.891567,192.5 C131.469648,192.845347 132.134055,193.160659 132.88481,193.445946 C133.635564,193.731233 134.521442,193.873874 135.542468,193.873874 C136.923856,193.873874 137.997419,193.569823 138.763188,192.961712 C139.528958,192.353601 139.911837,191.388895 139.911837,190.067568 C139.911837,189.301798 139.701629,188.678681 139.281206,188.198198 C138.860784,187.717715 138.308988,187.319821 137.625801,187.004505 C136.942614,186.689188 136.165595,186.411413 135.29472,186.171171 C134.423845,185.93093 133.53046,185.664416 132.61454,185.371622 C131.698619,185.078827 130.805235,184.718471 129.93436,184.290541 C129.063484,183.86261 128.286465,183.299553 127.603278,182.601351 C126.920092,181.90315 126.368296,181.032287 125.947873,179.988739 C125.527451,178.94519 125.317242,177.657665 125.317242,176.126126 C125.317242,174.894889 125.564988,173.6937 126.060486,172.522523 C126.555984,171.351345 127.284205,170.307812 128.24517,169.391892 C129.206136,168.475971 130.384803,167.743997 131.781206,167.195946 C133.17761,166.647895 134.776693,166.373874 136.578504,166.373874 C137.584515,166.373874 138.564235,166.452702 139.517693,166.61036 C140.471151,166.768019 141.375797,167.000749 142.231657,167.308559 C143.087517,167.616368 143.887059,167.984232 144.630305,168.412162 C145.373552,168.840092 146.03796,169.324322 146.623549,169.864865 L144.731657,173.400901 Z M160.992918,199.54955 L153.33526,199.54955 L153.33526,166.734234 L160.992918,166.734234 L160.992918,199.54955 Z M187.164089,173.400901 C186.938863,173.761263 186.702379,174.031531 186.45463,174.211712 C186.206881,174.391893 185.887815,174.481982 185.497423,174.481982 C185.152076,174.481982 184.780458,174.373124 184.382558,174.155405 C183.984658,173.937687 183.534212,173.693695 183.031206,173.423423 C182.528201,173.153152 181.953882,172.90916 181.308233,172.691441 C180.662585,172.473723 179.926856,172.364865 179.101026,172.364865 C177.674593,172.364865 176.612291,172.668916 175.914089,173.277027 C175.215888,173.885138 174.866792,174.707202 174.866792,175.743243 C174.866792,176.403907 175.077,176.95195 175.497423,177.387387 C175.917845,177.822825 176.469641,178.198197 177.152828,178.513514 C177.836015,178.82883 178.616788,179.117867 179.49517,179.380631 C180.373553,179.643395 181.270691,179.936185 182.186612,180.259009 C183.102532,180.581833 183.99967,180.960959 184.878053,181.396396 C185.756436,181.831834 186.537209,182.387384 187.220396,183.063063 C187.903582,183.738742 188.455378,184.560806 188.875801,185.529279 C189.296224,186.497753 189.506432,187.665158 189.506432,189.031532 C189.506432,190.548056 189.243671,191.96696 188.718143,193.288288 C188.192615,194.609616 187.430611,195.762007 186.432107,196.745495 C185.433604,197.728984 184.202385,198.502249 182.738414,199.065315 C181.274442,199.628381 179.611546,199.90991 177.749675,199.90991 C176.728649,199.90991 175.688869,199.804806 174.630305,199.594595 C173.571742,199.384383 172.546977,199.08784 171.555981,198.704955 C170.564985,198.32207 169.634064,197.86787 168.763188,197.342342 C167.892313,196.816814 167.134062,196.231234 166.488414,195.585586 L168.740666,192.027027 C168.905832,191.756755 169.138562,191.53904 169.438864,191.373874 C169.739166,191.208708 170.061985,191.126126 170.407333,191.126126 C170.857785,191.126126 171.311985,191.268767 171.769945,191.554054 C172.227905,191.839341 172.745918,192.154653 173.323999,192.5 C173.90208,192.845347 174.566488,193.160659 175.317242,193.445946 C176.067997,193.731233 176.953874,193.873874 177.9749,193.873874 C179.356288,193.873874 180.429851,193.569823 181.195621,192.961712 C181.96139,192.353601 182.344269,191.388895 182.344269,190.067568 C182.344269,189.301798 182.134061,188.678681 181.713639,188.198198 C181.293216,187.717715 180.74142,187.319821 180.058233,187.004505 C179.375047,186.689188 178.598028,186.411413 177.727152,186.171171 C176.856277,185.93093 175.962893,185.664416 175.046972,185.371622 C174.131052,185.078827 173.237667,184.718471 172.366792,184.290541 C171.495917,183.86261 170.718897,183.299553 170.035711,182.601351 C169.352524,181.90315 168.800728,181.032287 168.380305,179.988739 C167.959883,178.94519 167.749675,177.657665 167.749675,176.126126 C167.749675,174.894889 167.99742,173.6937 168.492918,172.522523 C168.988416,171.351345 169.716637,170.307812 170.677603,169.391892 C171.638569,168.475971 172.817235,167.743997 174.213639,167.195946 C175.610042,166.647895 177.209125,166.373874 179.010936,166.373874 C180.016947,166.373874 180.996667,166.452702 181.950125,166.61036 C182.903584,166.768019 183.808229,167.000749 184.664089,167.308559 C185.519949,167.616368 186.319491,167.984232 187.062738,168.412162 C187.805985,168.840092 188.470393,169.324322 189.055981,169.864865 L187.164089,173.400901 Z" id="GENESIS"></path>
            </g>
        </g>
    </g>
</svg>